<mxfile host="app.diagrams.net" agent="Mozilla/5.0 (Macintosh; Intel Mac OS X 10_15_7) AppleWebKit/537.36 (KHTML, like Gecko) Chrome/139.0.0.0 Safari/537.36" version="28.2.0">
  <diagram name="Page-1" id="yolX_gxU64kREPE_3TUZ">
    <mxGraphModel dx="3375" dy="1646" grid="0" gridSize="10" guides="1" tooltips="1" connect="1" arrows="1" fold="1" page="0" pageScale="1" pageWidth="827" pageHeight="1169" math="0" shadow="0">
      <root>
        <mxCell id="0" />
        <mxCell id="1" parent="0" />
        <mxCell id="e4_RCCN22bToamCJ0B3J-1" value="d" style="sketch=0;outlineConnect=0;gradientColor=none;html=1;whiteSpace=wrap;fontSize=12;fontStyle=0;shape=mxgraph.aws4.group;grIcon=mxgraph.aws4.group_aws_cloud;strokeColor=#858B94;fillColor=none;verticalAlign=top;align=left;spacingLeft=30;fontColor=#858B94;dashed=0;movable=1;resizable=1;rotatable=1;deletable=1;editable=1;locked=0;connectable=1;" parent="1" vertex="1">
          <mxGeometry x="-670" y="-250" width="1425" height="727" as="geometry" />
        </mxCell>
        <mxCell id="e4_RCCN22bToamCJ0B3J-4" value="Region" style="points=[[0,0],[0.25,0],[0.5,0],[0.75,0],[1,0],[1,0.25],[1,0.5],[1,0.75],[1,1],[0.75,1],[0.5,1],[0.25,1],[0,1],[0,0.75],[0,0.5],[0,0.25]];outlineConnect=0;gradientColor=none;html=1;whiteSpace=wrap;fontSize=12;fontStyle=0;container=1;pointerEvents=0;collapsible=0;recursiveResize=0;shape=mxgraph.aws4.group;grIcon=mxgraph.aws4.group_region;strokeColor=#00A4A6;fillColor=none;verticalAlign=top;align=left;spacingLeft=30;fontColor=#147EBA;dashed=1;" parent="1" vertex="1">
          <mxGeometry x="-640" y="-228" width="1369" height="685" as="geometry" />
        </mxCell>
        <mxCell id="e4_RCCN22bToamCJ0B3J-6" value="AWS Step Functions workflow" style="points=[[0,0],[0.25,0],[0.5,0],[0.75,0],[1,0],[1,0.25],[1,0.5],[1,0.75],[1,1],[0.75,1],[0.5,1],[0.25,1],[0,1],[0,0.75],[0,0.5],[0,0.25]];outlineConnect=0;gradientColor=none;html=1;whiteSpace=wrap;fontSize=12;fontStyle=0;container=1;pointerEvents=0;collapsible=0;recursiveResize=0;shape=mxgraph.aws4.group;grIcon=mxgraph.aws4.group_aws_step_functions_workflow;strokeColor=#CD2264;fillColor=none;verticalAlign=top;align=left;spacingLeft=30;fontColor=#CD2264;dashed=0;" parent="e4_RCCN22bToamCJ0B3J-4" vertex="1">
          <mxGeometry x="422" y="150" width="910" height="370" as="geometry" />
        </mxCell>
        <mxCell id="e4_RCCN22bToamCJ0B3J-9" value="score_handler" style="outlineConnect=0;dashed=0;verticalLabelPosition=bottom;verticalAlign=top;align=center;html=1;shape=mxgraph.aws3.lambda_function;fillColor=#F58534;gradientColor=none;" parent="e4_RCCN22bToamCJ0B3J-6" vertex="1">
          <mxGeometry x="250" y="120" width="69" height="72" as="geometry" />
        </mxCell>
        <mxCell id="e4_RCCN22bToamCJ0B3J-19" style="edgeStyle=orthogonalEdgeStyle;rounded=0;orthogonalLoop=1;jettySize=auto;html=1;" parent="e4_RCCN22bToamCJ0B3J-6" source="e4_RCCN22bToamCJ0B3J-8" target="e4_RCCN22bToamCJ0B3J-9" edge="1">
          <mxGeometry relative="1" as="geometry" />
        </mxCell>
        <mxCell id="e4_RCCN22bToamCJ0B3J-8" value="extract_text_handler" style="outlineConnect=0;dashed=0;verticalLabelPosition=bottom;verticalAlign=top;align=center;html=1;shape=mxgraph.aws3.lambda_function;fillColor=#F58534;gradientColor=none;" parent="e4_RCCN22bToamCJ0B3J-6" vertex="1">
          <mxGeometry x="90" y="120" width="69" height="72" as="geometry" />
        </mxCell>
        <mxCell id="e4_RCCN22bToamCJ0B3J-22" value="decision" style="rhombus;whiteSpace=wrap;html=1;" parent="e4_RCCN22bToamCJ0B3J-6" vertex="1">
          <mxGeometry x="367" y="118.25" width="80" height="75.5" as="geometry" />
        </mxCell>
        <mxCell id="e4_RCCN22bToamCJ0B3J-24" style="edgeStyle=orthogonalEdgeStyle;rounded=0;orthogonalLoop=1;jettySize=auto;html=1;entryX=0;entryY=0.5;entryDx=0;entryDy=0;" parent="e4_RCCN22bToamCJ0B3J-6" source="e4_RCCN22bToamCJ0B3J-9" target="e4_RCCN22bToamCJ0B3J-22" edge="1">
          <mxGeometry relative="1" as="geometry" />
        </mxCell>
        <mxCell id="e4_RCCN22bToamCJ0B3J-39" value="next steps email" style="sketch=0;outlineConnect=0;fontColor=#232F3E;gradientColor=none;fillColor=#DD344C;strokeColor=none;dashed=0;verticalLabelPosition=bottom;verticalAlign=top;align=center;html=1;fontSize=12;fontStyle=0;aspect=fixed;shape=mxgraph.aws4.email;" parent="e4_RCCN22bToamCJ0B3J-6" vertex="1">
          <mxGeometry x="728" y="192.95999999999998" width="54.34" height="48.07" as="geometry" />
        </mxCell>
        <mxCell id="e4_RCCN22bToamCJ0B3J-5" value="LLM" style="sketch=0;points=[[0,0,0],[0.25,0,0],[0.5,0,0],[0.75,0,0],[1,0,0],[0,1,0],[0.25,1,0],[0.5,1,0],[0.75,1,0],[1,1,0],[0,0.25,0],[0,0.5,0],[0,0.75,0],[1,0.25,0],[1,0.5,0],[1,0.75,0]];outlineConnect=0;fontColor=#232F3E;fillColor=#01A88D;strokeColor=#ffffff;dashed=0;verticalLabelPosition=bottom;verticalAlign=top;align=center;html=1;fontSize=12;fontStyle=0;aspect=fixed;shape=mxgraph.aws4.resourceIcon;resIcon=mxgraph.aws4.bedrock;" parent="e4_RCCN22bToamCJ0B3J-4" vertex="1">
          <mxGeometry x="676.5" y="9" width="60" height="60" as="geometry" />
        </mxCell>
        <mxCell id="e4_RCCN22bToamCJ0B3J-17" style="edgeStyle=orthogonalEdgeStyle;rounded=0;orthogonalLoop=1;jettySize=auto;html=1;" parent="e4_RCCN22bToamCJ0B3J-4" source="e4_RCCN22bToamCJ0B3J-12" target="e4_RCCN22bToamCJ0B3J-8" edge="1">
          <mxGeometry relative="1" as="geometry" />
        </mxCell>
        <mxCell id="e4_RCCN22bToamCJ0B3J-12" value="application_handler" style="outlineConnect=0;dashed=0;verticalLabelPosition=bottom;verticalAlign=top;align=center;html=1;shape=mxgraph.aws3.lambda_function;fillColor=#F58534;gradientColor=none;" parent="e4_RCCN22bToamCJ0B3J-4" vertex="1">
          <mxGeometry x="243" y="270" width="69" height="72" as="geometry" />
        </mxCell>
        <mxCell id="e4_RCCN22bToamCJ0B3J-20" style="edgeStyle=orthogonalEdgeStyle;rounded=0;orthogonalLoop=1;jettySize=auto;html=1;" parent="e4_RCCN22bToamCJ0B3J-4" source="e4_RCCN22bToamCJ0B3J-9" target="e4_RCCN22bToamCJ0B3J-5" edge="1">
          <mxGeometry relative="1" as="geometry" />
        </mxCell>
        <mxCell id="e4_RCCN22bToamCJ0B3J-11" value="resume_apigw" style="sketch=0;points=[[0,0,0],[0.25,0,0],[0.5,0,0],[0.75,0,0],[1,0,0],[0,1,0],[0.25,1,0],[0.5,1,0],[0.75,1,0],[1,1,0],[0,0.25,0],[0,0.5,0],[0,0.75,0],[1,0.25,0],[1,0.5,0],[1,0.75,0]];outlineConnect=0;fontColor=#232F3E;fillColor=#E7157B;strokeColor=#ffffff;dashed=0;verticalLabelPosition=bottom;verticalAlign=top;align=center;html=1;fontSize=12;fontStyle=0;aspect=fixed;shape=mxgraph.aws4.resourceIcon;resIcon=mxgraph.aws4.api_gateway;" parent="e4_RCCN22bToamCJ0B3J-4" vertex="1">
          <mxGeometry x="83" y="274.5" width="63" height="63" as="geometry" />
        </mxCell>
        <mxCell id="e4_RCCN22bToamCJ0B3J-13" style="edgeStyle=orthogonalEdgeStyle;rounded=0;orthogonalLoop=1;jettySize=auto;html=1;" parent="e4_RCCN22bToamCJ0B3J-4" source="e4_RCCN22bToamCJ0B3J-11" target="e4_RCCN22bToamCJ0B3J-12" edge="1">
          <mxGeometry relative="1" as="geometry" />
        </mxCell>
        <mxCell id="e4_RCCN22bToamCJ0B3J-35" value="POST /apply" style="edgeLabel;html=1;align=center;verticalAlign=middle;resizable=0;points=[];" parent="e4_RCCN22bToamCJ0B3J-13" vertex="1" connectable="0">
          <mxGeometry x="0.3462" relative="1" as="geometry">
            <mxPoint as="offset" />
          </mxGeometry>
        </mxCell>
        <mxCell id="e4_RCCN22bToamCJ0B3J-61" style="edgeStyle=orthogonalEdgeStyle;rounded=0;orthogonalLoop=1;jettySize=auto;html=1;entryX=0.5;entryY=0;entryDx=0;entryDy=0;entryPerimeter=0;" parent="e4_RCCN22bToamCJ0B3J-4" source="e4_RCCN22bToamCJ0B3J-5" target="e4_RCCN22bToamCJ0B3J-9" edge="1">
          <mxGeometry relative="1" as="geometry" />
        </mxCell>
        <mxCell id="YsU6yQpVR7TVACWaqlvw-1" value="applications_db" style="sketch=0;points=[[0,0,0],[0.25,0,0],[0.5,0,0],[0.75,0,0],[1,0,0],[0,1,0],[0.25,1,0],[0.5,1,0],[0.75,1,0],[1,1,0],[0,0.25,0],[0,0.5,0],[0,0.75,0],[1,0.25,0],[1,0.5,0],[1,0.75,0]];outlineConnect=0;fontColor=#232F3E;fillColor=#C925D1;strokeColor=#ffffff;dashed=0;verticalLabelPosition=bottom;verticalAlign=top;align=center;html=1;fontSize=12;fontStyle=0;aspect=fixed;shape=mxgraph.aws4.resourceIcon;resIcon=mxgraph.aws4.dynamodb;" vertex="1" parent="e4_RCCN22bToamCJ0B3J-4">
          <mxGeometry x="316" y="524" width="61" height="61" as="geometry" />
        </mxCell>
        <mxCell id="YsU6yQpVR7TVACWaqlvw-2" style="edgeStyle=orthogonalEdgeStyle;rounded=0;orthogonalLoop=1;jettySize=auto;html=1;" edge="1" parent="e4_RCCN22bToamCJ0B3J-4" source="e4_RCCN22bToamCJ0B3J-12" target="YsU6yQpVR7TVACWaqlvw-1">
          <mxGeometry relative="1" as="geometry">
            <Array as="points">
              <mxPoint x="278" y="564" />
            </Array>
          </mxGeometry>
        </mxCell>
        <mxCell id="YsU6yQpVR7TVACWaqlvw-3" value="insert applicant data" style="edgeLabel;html=1;align=center;verticalAlign=middle;resizable=0;points=[];" vertex="1" connectable="0" parent="YsU6yQpVR7TVACWaqlvw-2">
          <mxGeometry x="-0.2626" y="2" relative="1" as="geometry">
            <mxPoint as="offset" />
          </mxGeometry>
        </mxCell>
        <mxCell id="YsU6yQpVR7TVACWaqlvw-4" value="jobdesc_db" style="sketch=0;points=[[0,0,0],[0.25,0,0],[0.5,0,0],[0.75,0,0],[1,0,0],[0,1,0],[0.25,1,0],[0.5,1,0],[0.75,1,0],[1,1,0],[0,0.25,0],[0,0.5,0],[0,0.75,0],[1,0.25,0],[1,0.5,0],[1,0.75,0]];outlineConnect=0;fontColor=#232F3E;fillColor=#C925D1;strokeColor=#ffffff;dashed=0;verticalLabelPosition=bottom;verticalAlign=top;align=center;html=1;fontSize=12;fontStyle=0;aspect=fixed;shape=mxgraph.aws4.resourceIcon;resIcon=mxgraph.aws4.dynamodb;" vertex="1" parent="e4_RCCN22bToamCJ0B3J-4">
          <mxGeometry x="83" y="585" width="63" height="63" as="geometry" />
        </mxCell>
        <mxCell id="YsU6yQpVR7TVACWaqlvw-5" value="job_post_handler" style="outlineConnect=0;dashed=0;verticalLabelPosition=bottom;verticalAlign=top;align=center;html=1;shape=mxgraph.aws3.lambda_function;fillColor=#F58534;gradientColor=none;" vertex="1" parent="e4_RCCN22bToamCJ0B3J-4">
          <mxGeometry x="83" y="413" width="63" height="65" as="geometry" />
        </mxCell>
        <mxCell id="YsU6yQpVR7TVACWaqlvw-6" style="edgeStyle=orthogonalEdgeStyle;rounded=0;orthogonalLoop=1;jettySize=auto;html=1;entryX=0.5;entryY=0;entryDx=0;entryDy=0;entryPerimeter=0;" edge="1" parent="e4_RCCN22bToamCJ0B3J-4" source="e4_RCCN22bToamCJ0B3J-11" target="YsU6yQpVR7TVACWaqlvw-5">
          <mxGeometry relative="1" as="geometry" />
        </mxCell>
        <mxCell id="YsU6yQpVR7TVACWaqlvw-9" value="POST /job" style="edgeLabel;html=1;align=center;verticalAlign=middle;resizable=0;points=[];" vertex="1" connectable="0" parent="YsU6yQpVR7TVACWaqlvw-6">
          <mxGeometry x="0.0728" relative="1" as="geometry">
            <mxPoint y="1" as="offset" />
          </mxGeometry>
        </mxCell>
        <mxCell id="YsU6yQpVR7TVACWaqlvw-7" style="edgeStyle=orthogonalEdgeStyle;rounded=0;orthogonalLoop=1;jettySize=auto;html=1;" edge="1" parent="e4_RCCN22bToamCJ0B3J-4" source="YsU6yQpVR7TVACWaqlvw-5" target="YsU6yQpVR7TVACWaqlvw-4">
          <mxGeometry relative="1" as="geometry">
            <Array as="points">
              <mxPoint x="115" y="483" />
              <mxPoint x="115" y="483" />
            </Array>
          </mxGeometry>
        </mxCell>
        <mxCell id="YsU6yQpVR7TVACWaqlvw-8" value="insert job details" style="edgeLabel;html=1;align=center;verticalAlign=middle;resizable=0;points=[];" vertex="1" connectable="0" parent="YsU6yQpVR7TVACWaqlvw-7">
          <mxGeometry x="-0.2308" y="-2" relative="1" as="geometry">
            <mxPoint as="offset" />
          </mxGeometry>
        </mxCell>
        <mxCell id="YsU6yQpVR7TVACWaqlvw-12" style="edgeStyle=orthogonalEdgeStyle;rounded=0;orthogonalLoop=1;jettySize=auto;html=1;entryX=1;entryY=0.5;entryDx=0;entryDy=0;entryPerimeter=0;startArrow=classic;startFill=1;" edge="1" parent="e4_RCCN22bToamCJ0B3J-4" source="e4_RCCN22bToamCJ0B3J-8" target="YsU6yQpVR7TVACWaqlvw-4">
          <mxGeometry relative="1" as="geometry">
            <Array as="points">
              <mxPoint x="547" y="617" />
            </Array>
          </mxGeometry>
        </mxCell>
        <mxCell id="YsU6yQpVR7TVACWaqlvw-13" value="GET job details" style="edgeLabel;html=1;align=center;verticalAlign=middle;resizable=0;points=[];" vertex="1" connectable="0" parent="YsU6yQpVR7TVACWaqlvw-12">
          <mxGeometry x="0.0459" y="4" relative="1" as="geometry">
            <mxPoint as="offset" />
          </mxGeometry>
        </mxCell>
        <mxCell id="YsU6yQpVR7TVACWaqlvw-26" style="edgeStyle=orthogonalEdgeStyle;rounded=0;orthogonalLoop=1;jettySize=auto;html=1;" edge="1" parent="e4_RCCN22bToamCJ0B3J-4">
          <mxGeometry relative="1" as="geometry">
            <mxPoint x="270.9976190476188" y="270" as="sourcePoint" />
            <mxPoint x="302.95" y="96" as="targetPoint" />
            <Array as="points">
              <mxPoint x="280" y="270" />
              <mxPoint x="280" y="96" />
            </Array>
          </mxGeometry>
        </mxCell>
        <mxCell id="YsU6yQpVR7TVACWaqlvw-27" value="UPLOAD resume" style="edgeLabel;html=1;align=center;verticalAlign=middle;resizable=0;points=[];" vertex="1" connectable="0" parent="YsU6yQpVR7TVACWaqlvw-26">
          <mxGeometry x="0.2142" y="1" relative="1" as="geometry">
            <mxPoint as="offset" />
          </mxGeometry>
        </mxCell>
        <mxCell id="e4_RCCN22bToamCJ0B3J-49" style="edgeStyle=orthogonalEdgeStyle;rounded=0;orthogonalLoop=1;jettySize=auto;html=1;" parent="1" source="e4_RCCN22bToamCJ0B3J-25" target="e4_RCCN22bToamCJ0B3J-43" edge="1">
          <mxGeometry relative="1" as="geometry" />
        </mxCell>
        <mxCell id="e4_RCCN22bToamCJ0B3J-25" value="rejection_handler" style="outlineConnect=0;dashed=0;verticalLabelPosition=bottom;verticalAlign=top;align=center;html=1;shape=mxgraph.aws3.lambda_function;fillColor=#F58534;gradientColor=none;" parent="1" vertex="1">
          <mxGeometry x="344" y="-24" width="69" height="72" as="geometry" />
        </mxCell>
        <mxCell id="e4_RCCN22bToamCJ0B3J-40" style="edgeStyle=orthogonalEdgeStyle;rounded=0;orthogonalLoop=1;jettySize=auto;html=1;" parent="1" source="e4_RCCN22bToamCJ0B3J-26" target="e4_RCCN22bToamCJ0B3J-39" edge="1">
          <mxGeometry relative="1" as="geometry" />
        </mxCell>
        <mxCell id="e4_RCCN22bToamCJ0B3J-26" value="next_steps_handler" style="outlineConnect=0;dashed=0;verticalLabelPosition=bottom;verticalAlign=top;align=center;html=1;shape=mxgraph.aws3.lambda_function;fillColor=#F58534;gradientColor=none;" parent="1" vertex="1">
          <mxGeometry x="267" y="103" width="69" height="72" as="geometry" />
        </mxCell>
        <mxCell id="e4_RCCN22bToamCJ0B3J-27" style="edgeStyle=orthogonalEdgeStyle;rounded=0;orthogonalLoop=1;jettySize=auto;html=1;entryX=0;entryY=0.5;entryDx=0;entryDy=0;entryPerimeter=0;exitX=0.5;exitY=0;exitDx=0;exitDy=0;" parent="1" source="e4_RCCN22bToamCJ0B3J-22" target="e4_RCCN22bToamCJ0B3J-25" edge="1">
          <mxGeometry relative="1" as="geometry" />
        </mxCell>
        <mxCell id="e4_RCCN22bToamCJ0B3J-28" value="score &amp;lt; threshold" style="edgeLabel;html=1;align=center;verticalAlign=middle;resizable=0;points=[];" parent="e4_RCCN22bToamCJ0B3J-27" vertex="1" connectable="0">
          <mxGeometry x="0.0546" y="-2" relative="1" as="geometry">
            <mxPoint as="offset" />
          </mxGeometry>
        </mxCell>
        <mxCell id="e4_RCCN22bToamCJ0B3J-29" style="edgeStyle=orthogonalEdgeStyle;rounded=0;orthogonalLoop=1;jettySize=auto;html=1;entryX=0;entryY=0.5;entryDx=0;entryDy=0;entryPerimeter=0;exitX=0.5;exitY=1;exitDx=0;exitDy=0;" parent="1" source="e4_RCCN22bToamCJ0B3J-22" target="e4_RCCN22bToamCJ0B3J-26" edge="1">
          <mxGeometry relative="1" as="geometry" />
        </mxCell>
        <mxCell id="e4_RCCN22bToamCJ0B3J-30" value="score &amp;gt;= threshold" style="edgeLabel;html=1;align=center;verticalAlign=middle;resizable=0;points=[];" parent="e4_RCCN22bToamCJ0B3J-29" vertex="1" connectable="0">
          <mxGeometry x="0.3906" y="-1" relative="1" as="geometry">
            <mxPoint as="offset" />
          </mxGeometry>
        </mxCell>
        <mxCell id="e4_RCCN22bToamCJ0B3J-43" value="reject email" style="sketch=0;outlineConnect=0;fontColor=#232F3E;gradientColor=none;fillColor=#DD344C;strokeColor=none;dashed=0;verticalLabelPosition=bottom;verticalAlign=top;align=center;html=1;fontSize=12;fontStyle=0;aspect=fixed;shape=mxgraph.aws4.email;" parent="1" vertex="1">
          <mxGeometry x="514" y="-12.25" width="54.82" height="48.5" as="geometry" />
        </mxCell>
        <mxCell id="e4_RCCN22bToamCJ0B3J-51" value="applicant" style="sketch=0;outlineConnect=0;fontColor=#232F3E;gradientColor=none;fillColor=#232F3D;strokeColor=none;dashed=0;verticalLabelPosition=bottom;verticalAlign=top;align=center;html=1;fontSize=12;fontStyle=0;aspect=fixed;pointerEvents=1;shape=mxgraph.aws4.user;" parent="1" vertex="1">
          <mxGeometry x="-905.5" y="-122" width="64" height="64" as="geometry" />
        </mxCell>
        <mxCell id="e4_RCCN22bToamCJ0B3J-55" style="edgeStyle=orthogonalEdgeStyle;rounded=0;orthogonalLoop=1;jettySize=auto;html=1;" parent="1" source="e4_RCCN22bToamCJ0B3J-53" target="e4_RCCN22bToamCJ0B3J-11" edge="1">
          <mxGeometry relative="1" as="geometry" />
        </mxCell>
        <mxCell id="YsU6yQpVR7TVACWaqlvw-22" value="apply to job" style="edgeLabel;html=1;align=center;verticalAlign=middle;resizable=0;points=[];" vertex="1" connectable="0" parent="e4_RCCN22bToamCJ0B3J-55">
          <mxGeometry x="0.1985" relative="1" as="geometry">
            <mxPoint as="offset" />
          </mxGeometry>
        </mxCell>
        <mxCell id="e4_RCCN22bToamCJ0B3J-53" value="" style="sketch=0;aspect=fixed;pointerEvents=1;shadow=0;dashed=0;html=1;strokeColor=none;labelPosition=center;verticalLabelPosition=bottom;verticalAlign=top;align=center;fillColor=#00188D;shape=mxgraph.azure.laptop" parent="1" vertex="1">
          <mxGeometry x="-801" y="-115" width="83.33" height="50" as="geometry" />
        </mxCell>
        <mxCell id="e4_RCCN22bToamCJ0B3J-54" style="edgeStyle=orthogonalEdgeStyle;rounded=0;orthogonalLoop=1;jettySize=auto;html=1;entryX=0.08;entryY=0.5;entryDx=0;entryDy=0;entryPerimeter=0;" parent="1" source="e4_RCCN22bToamCJ0B3J-51" target="e4_RCCN22bToamCJ0B3J-53" edge="1">
          <mxGeometry relative="1" as="geometry" />
        </mxCell>
        <mxCell id="e4_RCCN22bToamCJ0B3J-57" value="&lt;font style=&quot;font-size: 24px;&quot;&gt;RESUME SHORTLISTING WORKFLOW&lt;/font&gt;" style="text;html=1;align=center;verticalAlign=middle;whiteSpace=wrap;rounded=0;" parent="1" vertex="1">
          <mxGeometry x="-385" y="-323" width="930" height="47" as="geometry" />
        </mxCell>
        <mxCell id="YsU6yQpVR7TVACWaqlvw-14" style="edgeStyle=orthogonalEdgeStyle;rounded=0;orthogonalLoop=1;jettySize=auto;html=1;entryX=1;entryY=0.5;entryDx=0;entryDy=0;entryPerimeter=0;" edge="1" parent="1" source="e4_RCCN22bToamCJ0B3J-26" target="YsU6yQpVR7TVACWaqlvw-1">
          <mxGeometry relative="1" as="geometry">
            <Array as="points">
              <mxPoint x="298" y="327" />
            </Array>
          </mxGeometry>
        </mxCell>
        <mxCell id="YsU6yQpVR7TVACWaqlvw-15" value="update applicant status to &#39;accepted&#39;" style="edgeLabel;html=1;align=center;verticalAlign=middle;resizable=0;points=[];" vertex="1" connectable="0" parent="YsU6yQpVR7TVACWaqlvw-14">
          <mxGeometry x="-0.1431" y="3" relative="1" as="geometry">
            <mxPoint as="offset" />
          </mxGeometry>
        </mxCell>
        <mxCell id="YsU6yQpVR7TVACWaqlvw-17" value="" style="sketch=0;pointerEvents=1;shadow=0;dashed=0;html=1;strokeColor=none;fillColor=#DF8C42;labelPosition=center;verticalLabelPosition=bottom;verticalAlign=top;align=center;outlineConnect=0;shape=mxgraph.veeam2.aws_s3;" vertex="1" parent="1">
          <mxGeometry x="-339" y="-163" width="64" height="62" as="geometry" />
        </mxCell>
        <mxCell id="YsU6yQpVR7TVACWaqlvw-18" style="edgeStyle=orthogonalEdgeStyle;rounded=0;orthogonalLoop=1;jettySize=auto;html=1;" edge="1" parent="1" source="e4_RCCN22bToamCJ0B3J-25">
          <mxGeometry relative="1" as="geometry">
            <mxPoint x="-275" y="-132" as="targetPoint" />
            <Array as="points">
              <mxPoint x="379" y="-132" />
              <mxPoint x="-275" y="-132" />
            </Array>
          </mxGeometry>
        </mxCell>
        <mxCell id="YsU6yQpVR7TVACWaqlvw-19" value="DELETE resume" style="edgeLabel;html=1;align=center;verticalAlign=middle;resizable=0;points=[];" vertex="1" connectable="0" parent="YsU6yQpVR7TVACWaqlvw-18">
          <mxGeometry x="0.6733" relative="1" as="geometry">
            <mxPoint as="offset" />
          </mxGeometry>
        </mxCell>
        <mxCell id="YsU6yQpVR7TVACWaqlvw-20" style="edgeStyle=orthogonalEdgeStyle;rounded=0;orthogonalLoop=1;jettySize=auto;html=1;startArrow=classic;startFill=1;" edge="1" parent="1" source="e4_RCCN22bToamCJ0B3J-8" target="YsU6yQpVR7TVACWaqlvw-17">
          <mxGeometry relative="1" as="geometry">
            <Array as="points">
              <mxPoint x="-92" y="7" />
              <mxPoint x="-307" y="7" />
            </Array>
          </mxGeometry>
        </mxCell>
        <mxCell id="YsU6yQpVR7TVACWaqlvw-21" value="GET resume docx" style="edgeLabel;html=1;align=center;verticalAlign=middle;resizable=0;points=[];" vertex="1" connectable="0" parent="YsU6yQpVR7TVACWaqlvw-20">
          <mxGeometry x="0.2663" relative="1" as="geometry">
            <mxPoint as="offset" />
          </mxGeometry>
        </mxCell>
        <mxCell id="YsU6yQpVR7TVACWaqlvw-23" value="HR" style="sketch=0;outlineConnect=0;fontColor=#232F3E;gradientColor=none;fillColor=#232F3D;strokeColor=none;dashed=0;verticalLabelPosition=bottom;verticalAlign=top;align=center;html=1;fontSize=12;fontStyle=0;aspect=fixed;pointerEvents=1;shape=mxgraph.aws4.authenticated_user;" vertex="1" parent="1">
          <mxGeometry x="-889" y="50.5" width="59" height="59" as="geometry" />
        </mxCell>
        <mxCell id="YsU6yQpVR7TVACWaqlvw-24" style="edgeStyle=orthogonalEdgeStyle;rounded=0;orthogonalLoop=1;jettySize=auto;html=1;" edge="1" parent="1" source="YsU6yQpVR7TVACWaqlvw-23">
          <mxGeometry relative="1" as="geometry">
            <mxPoint x="-557" y="84" as="targetPoint" />
            <Array as="points">
              <mxPoint x="-557" y="84" />
            </Array>
          </mxGeometry>
        </mxCell>
        <mxCell id="YsU6yQpVR7TVACWaqlvw-25" value="post a job vacancy" style="edgeLabel;html=1;align=center;verticalAlign=middle;resizable=0;points=[];" vertex="1" connectable="0" parent="YsU6yQpVR7TVACWaqlvw-24">
          <mxGeometry x="-0.3843" y="-1" relative="1" as="geometry">
            <mxPoint as="offset" />
          </mxGeometry>
        </mxCell>
        <mxCell id="YsU6yQpVR7TVACWaqlvw-28" style="edgeStyle=orthogonalEdgeStyle;rounded=0;orthogonalLoop=1;jettySize=auto;html=1;entryX=1;entryY=0.75;entryDx=0;entryDy=0;entryPerimeter=0;startArrow=classic;startFill=1;" edge="1" parent="1" source="e4_RCCN22bToamCJ0B3J-25" target="YsU6yQpVR7TVACWaqlvw-1">
          <mxGeometry relative="1" as="geometry">
            <Array as="points">
              <mxPoint x="382" y="342" />
            </Array>
          </mxGeometry>
        </mxCell>
        <mxCell id="YsU6yQpVR7TVACWaqlvw-29" value="update applicant status to &#39;rejected&#39;" style="edgeLabel;html=1;align=center;verticalAlign=middle;resizable=0;points=[];" vertex="1" connectable="0" parent="YsU6yQpVR7TVACWaqlvw-28">
          <mxGeometry x="-0.5491" relative="1" as="geometry">
            <mxPoint as="offset" />
          </mxGeometry>
        </mxCell>
      </root>
    </mxGraphModel>
  </diagram>
</mxfile>
